<svg xmlns="http://www.w3.org/2000/svg" viewBox="0 0 32 32" width="32" height="32" role="img" aria-label="StoryFab favicon">
  <title>StoryFab</title>
  <rect width="32" height="32" rx="7" fill="#0C0D14"/>
  <rect x="4" y="7" width="5.5" height="18" rx="1.5" fill="#FF9F43" opacity="0.9"/>
  <rect x="4.75" y="8.5" width="4" height="2" rx="0.5" fill="#0C0D14" opacity="0.55"/>
  <rect x="4.75" y="12" width="4" height="2" rx="0.5" fill="#0C0D14" opacity="0.55"/>
  <rect x="4.75" y="15.5" width="4" height="2" rx="0.5" fill="#0C0D14" opacity="0.55"/>
  <rect x="4.75" y="19" width="4" height="2" rx="0.5" fill="#0C0D14" opacity="0.55"/>
  <rect x="22.5" y="7" width="5.5" height="18" rx="1.5" fill="#FF9F43" opacity="0.9"/>
  <rect x="23.25" y="8.5" width="4" height="2" rx="0.5" fill="#0C0D14" opacity="0.55"/>
  <rect x="23.25" y="12" width="4" height="2" rx="0.5" fill="#0C0D14" opacity="0.55"/>
  <rect x="23.25" y="15.5" width="4" height="2" rx="0.5" fill="#0C0D14" opacity="0.55"/>
  <rect x="23.25" y="19" width="4" height="2" rx="0.5" fill="#0C0D14" opacity="0.55"/>
  <polygon points="12.5,10 12.5,22 23,16" fill="#00D4FF" opacity="0.95"/>
</svg>