<svg xmlns="http://www.w3.org/2000/svg" viewBox="0 0 512 512" width="512" height="512" role="img" aria-label="StoryFab logo">
  <title>StoryFab</title>
  <defs>
    <linearGradient id="bg" x1="0%" y1="0%" x2="100%" y2="100%">
      <stop offset="0%" stop-color="#0C0D14"/>
      <stop offset="100%" stop-color="#1A1B2E"/>
    </linearGradient>
    <linearGradient id="film" x1="0%" y1="0%" x2="100%" y2="100%">
      <stop offset="0%" stop-color="#FF9F43"/>
      <stop offset="100%" stop-color="#FFB06B"/>
    </linearGradient>
    <linearGradient id="spark" x1="0%" y1="0%" x2="100%" y2="0%">
      <stop offset="0%" stop-color="#00D4FF"/>
      <stop offset="100%" stop-color="#00F5E4"/>
    </linearGradient>
  </defs>
  <rect width="512" height="512" rx="112" fill="url(#bg)"/>
  <rect x="72" y="112" width="88" height="288" rx="16" fill="url(#film)" opacity="0.9"/>
  <rect x="84" y="136" width="64" height="24" rx="6" fill="#0C0D14" opacity="0.55"/>
  <rect x="84" y="176" width="64" height="24" rx="6" fill="#0C0D14" opacity="0.55"/>
  <rect x="84" y="216" width="64" height="24" rx="6" fill="#0C0D14" opacity="0.55"/>
  <rect x="84" y="256" width="64" height="24" rx="6" fill="#0C0D14" opacity="0.55"/>
  <rect x="84" y="296" width="64" height="24" rx="6" fill="#0C0D14" opacity="0.55"/>
  <rect x="84" y="336" width="64" height="24" rx="6" fill="#0C0D14" opacity="0.55"/>
  <rect x="84" y="376" width="64" height="24" rx="6" fill="#0C0D14" opacity="0.55"/>
  <rect x="352" y="112" width="88" height="288" rx="16" fill="url(#film)" opacity="0.9"/>
  <rect x="364" y="136" width="64" height="24" rx="6" fill="#0C0D14" opacity="0.55"/>
  <rect x="364" y="176" width="64" height="24" rx="6" fill="#0C0D14" opacity="0.55"/>
  <rect x="364" y="216" width="64" height="24" rx="6" fill="#0C0D14" opacity="0.55"/>
  <rect x="364" y="256" width="64" height="24" rx="6" fill="#0C0D14" opacity="0.55"/>
  <rect x="364" y="296" width="64" height="24" rx="6" fill="#0C0D14" opacity="0.55"/>
  <rect x="364" y="336" width="64" height="24" rx="6" fill="#0C0D14" opacity="0.55"/>
  <rect x="364" y="376" width="64" height="24" rx="6" fill="#0C0D14" opacity="0.55"/>
  <polygon points="200,160 200,352 368,256" fill="url(#spark)" opacity="0.95"/>
  <g transform="translate(392,80)"><path d="M32,0 L37,24 L62,32 L37,40 L32,64 L27,40 L2,32 L27,24 Z" fill="#00D4FF" opacity="0.85"/></g>
  <g transform="translate(32,384)"><path d="M24,0 L28,18 L46,24 L28,30 L24,48 L20,30 L2,24 L20,18 Z" fill="#FF9F43" opacity="0.75"/></g>
</svg>