<svg xmlns="http://www.w3.org/2000/svg" viewBox="0 0 128 128" width="128" height="128">
  <defs>
    <linearGradient id="bg" x1="0%" y1="0%" x2="100%" y2="100%">
      <stop offset="0%" stop-color="#0C0D14"/>
      <stop offset="100%" stop-color="#1A1B2E"/>
    </linearGradient>
    <linearGradient id="film" x1="0%" y1="0%" x2="100%" y2="100%">
      <stop offset="0%" stop-color="#FF9F43"/>
      <stop offset="100%" stop-color="#FFB06B"/>
    </linearGradient>
    <linearGradient id="spark" x1="0%" y1="0%" x2="100%" y2="0%">
      <stop offset="0%" stop-color="#00D4FF"/>
      <stop offset="100%" stop-color="#00F5E4"/>
    </linearGradient>
  </defs>

  <!-- Background -->
  <rect width="128" height="128" rx="28" fill="url(#bg)"/>

  <!-- Film strip left -->
  <rect x="18" y="28" width="22" height="72" rx="4" fill="url(#film)" opacity="0.9"/>
  <rect x="20" y="34" width="18" height="6" rx="2" fill="#0C0D14" opacity="0.6"/>
  <rect x="20" y="46" width="18" height="6" rx="2" fill="#0C0D14" opacity="0.6"/>
  <rect x="20" y="58" width="18" height="6" rx="2" fill="#0C0D14" opacity="0.6"/>
  <rect x="20" y="70" width="18" height="6" rx="2" fill="#0C0D14" opacity="0.6"/>
  <rect x="20" y="82" width="18" height="6" rx="2" fill="#0C0D14" opacity="0.6"/>
  <rect x="20" y="94" width="18" height="6" rx="2" fill="#0C0D14" opacity="0.6"/>

  <!-- Film strip right -->
  <rect x="88" y="28" width="22" height="72" rx="4" fill="url(#film)" opacity="0.9"/>
  <rect x="90" y="34" width="18" height="6" rx="2" fill="#0C0D14" opacity="0.6"/>
  <rect x="90" y="46" width="18" height="6" rx="2" fill="#0C0D14" opacity="0.6"/>
  <rect x="90" y="58" width="18" height="6" rx="2" fill="#0C0D14" opacity="0.6"/>
  <rect x="90" y="70" width="18" height="6" rx="2" fill="#0C0D14" opacity="0.6"/>
  <rect x="90" y="82" width="18" height="6" rx="2" fill="#0C0D14" opacity="0.6"/>
  <rect x="90" y="94" width="18" height="6" rx="2" fill="#0C0D14" opacity="0.6"/>

  <!-- Center play button triangle -->
  <polygon points="50,40 50,88 88,64" fill="url(#spark)" opacity="0.95"/>

  <!-- Sparkle star top-right -->
  <g transform="translate(98, 20)">
    <path d="M8,0 L9.5,6 L16,8 L9.5,10 L8,16 L6.5,10 L0,8 L6.5,6 Z" fill="#00D4FF" opacity="0.85"/>
  </g>

  <!-- Sparkle star bottom-left -->
  <g transform="translate(8, 96)">
    <path d="M6,0 L7,4.5 L12,6 L7,7.5 L6,12 L5,7.5 L0,6 L5,4.5 Z" fill="#FF9F43" opacity="0.75"/>
  </g>
</svg>